<svg viewBox="0 0 40 40" fill="none" xmlns="http://www.w3.org/2000/svg">
<path d="M39.1641 13.5325L15.5058 1.18195C14.7384 0.780493 13.7831 1.06545 13.3729 1.81955L7 13.5601H32.7005C34.7121 13.5601 36.3529 15.169 36.3529 17.1432V22L39.8151 15.6232C40.2237 14.8691 39.9323 13.934 39.1641 13.5325Z" fill="white"/>
<path d="M32.727 15.3643H1.81839C0.813596 15.3643 0 16.1779 0 17.1826V37.1826C0 38.1873 0.813596 39.0001 1.81839 39.0001H32.727C33.7318 39.0001 34.5446 38.1865 34.5446 37.1826V17.1826C34.5454 16.1779 33.7318 15.3643 32.727 15.3643ZM25.4503 35.3642H17.2727H9.09436C9.09436 35.3642 8.81196 32.021 11.5391 31.4738C13.2967 31.1226 14.3175 29.1074 14.8295 27.7114C13.8279 26.829 13.1799 25.4226 13.1799 23.8354C13.1799 21.161 15.0103 18.9914 17.2727 18.9914C19.5327 18.9914 21.3655 21.161 21.3655 23.8354C21.3655 25.4226 20.7159 26.829 19.7199 27.7114C20.2239 29.1074 21.2503 31.1226 23.0047 31.4738C25.7335 32.021 25.4503 35.3642 25.4503 35.3642Z" fill="white"/>
</svg>
