<svg viewBox="0 0 40 40" fill="none" xmlns="http://www.w3.org/2000/svg">
<path d="M22.5769 29.2553C30.0938 23.3281 30.2557 16.8009 22.5769 10.746L20.0007 8.95176C18.0232 7.54206 14.7045 4.54072 14.7045 1.49164C14.7045 0.667753 14.0367 0 13.2135 0C12.3902 0 11.7225 0.667753 11.7225 1.49099C11.7225 5.5859 15.2148 8.99176 17.4394 10.7453L20.0078 12.5454C26.7685 17.4048 26.4285 21.4423 22.3988 25.4423C21.5156 26.3191 20.6201 27.0153 20.0078 27.4553L17.4394 29.2547C15.2148 31.0089 11.7225 34.4141 11.7225 38.509C11.7225 39.3322 12.3902 40 13.2135 40C14.0367 40 14.7045 39.3322 14.7045 38.509C14.7045 35.6264 17.6548 32.745 20.0078 31.054L22.5769 29.2553Z" fill="white"/>
<path d="M27.3731 5.14976C27.9247 4.02006 28.2776 2.79101 28.2776 1.49099C28.2776 0.667753 27.6099 0 26.7866 0C25.9634 0 25.2956 0.667753 25.2956 1.49099C25.2956 2.04971 25.1801 2.60649 24.9853 3.15295H20.0001H16.6923C17.1865 4.18265 18.0562 5.22073 19.0239 6.13494H20.0001H23.1324C22.5433 6.80979 21.8994 7.42464 21.2833 7.94787L23.5401 9.52273C23.6214 9.58661 23.6963 9.65112 23.7756 9.715C24.9834 8.61885 26.2944 7.17947 27.1892 5.5046C27.2673 5.39622 27.3273 5.27686 27.3731 5.14976Z" fill="white"/>
<path d="M14.9709 18.3383H23.3678C22.9504 17.3879 22.1729 16.3924 21.0303 15.3563H16.7851C17.3167 14.7601 17.9458 14.1537 18.7038 13.533L16.4748 11.9685C16.3922 11.9033 16.3038 11.8304 16.218 11.7607C10.1753 17.1789 10.2882 22.9209 16.218 28.2391C16.3038 28.1694 16.3928 28.0965 16.4748 28.0313L16.5451 27.9784L18.7174 26.4565C18.3574 26.1526 17.98 25.8177 17.6006 25.4416C17.3329 25.1758 17.0864 24.91 16.8522 24.6435H20.9749C21.0839 24.5416 21.1923 24.4442 21.3013 24.3364C22.2536 23.3913 22.911 22.5054 23.302 21.6615H15.0225C14.6541 20.5789 14.6122 19.4757 14.9709 18.3383Z" fill="white"/>
<path d="M27.3718 34.8483C27.326 34.7231 27.2666 34.6051 27.1911 34.498C26.2963 32.8225 24.9846 31.3824 23.7762 30.2856C23.6969 30.3495 23.622 30.414 23.5407 30.4779L23.4704 30.5308L21.2833 32.0631C21.9226 32.6044 22.5601 33.2128 23.1323 33.8657H19.0349C18.0503 34.7902 17.1839 35.8244 16.6929 36.8477H24.9872C25.1821 37.3961 25.2956 37.9522 25.2956 38.509C25.2956 39.3322 25.9634 40 26.7866 40C27.6105 40 28.2776 39.3322 28.2776 38.509C28.2776 37.209 27.924 35.9786 27.3718 34.8483Z" fill="white"/>
</svg>
