<svg viewBox="0 0 40 40" fill="none" xmlns="http://www.w3.org/2000/svg">
<path fill-rule="evenodd" clip-rule="evenodd" d="M17.5749 0H36.5056C37.8765 0 38.995 1.12873 38.995 2.51217V5.48883C38.995 6.3978 38.515 7.1969 37.7924 7.63641C37.4014 7.45661 36.9609 7.35672 36.5056 7.35672H17.5749C17.1146 7.35672 16.6791 7.45661 16.2881 7.63641C15.5705 7.1969 15.0854 6.3978 15.0854 5.48883V2.51217C15.0854 1.12873 16.2089 0 17.5749 0ZM14.8776 11.9865C22.5439 11.9865 28.7551 18.2595 28.7551 25.9908C28.7551 33.7271 22.5389 39.995 14.8776 39.995C7.21125 39.995 1 33.7221 1 25.9908C1 18.2595 7.21125 11.9865 14.8776 11.9865ZM14.2391 26.5801V31.0151C13.8828 30.9052 13.566 30.7105 13.3136 30.4557C12.9127 30.0512 12.6653 29.4918 12.6653 28.8775H11.3834C11.3834 29.8514 11.7744 30.7304 12.4079 31.3697C12.8979 31.8642 13.5314 32.2088 14.2391 32.3436V34.0867H15.516V32.3386C16.2238 32.2088 16.8573 31.8592 17.3472 31.3647C17.9807 30.7254 18.3717 29.8464 18.3717 28.8725C18.3717 27.8986 17.9807 27.0196 17.3472 26.3803C16.8573 25.8859 16.2238 25.5413 15.516 25.4064V20.9714C15.8724 21.0813 16.1891 21.2761 16.4415 21.5308C16.8424 21.9353 17.0899 22.4947 17.0899 23.109H18.3668C18.3668 22.1351 17.9758 21.2561 17.3423 20.6168C16.8523 20.1224 16.2188 19.7778 15.5111 19.6429V17.9049H14.2342V19.6479C13.5264 19.7778 12.8929 20.1274 12.403 20.6218C11.7695 21.2611 11.3785 22.1401 11.3785 23.114C11.3785 24.0879 11.7695 24.9669 12.403 25.6062C12.8979 26.1006 13.5314 26.4453 14.2391 26.5801ZM14.2391 20.9714C13.8828 21.0813 13.566 21.2761 13.3136 21.5308C12.9127 21.9353 12.6653 22.4947 12.6653 23.109C12.6653 23.7283 12.9127 24.2827 13.3136 24.6872C13.566 24.9419 13.8877 25.1367 14.2391 25.2466V20.9714ZM15.516 31.0101C15.8724 30.9002 16.1891 30.7055 16.4415 30.4507C16.8424 30.0462 17.0899 29.4868 17.0899 28.8725C17.0899 28.2532 16.8424 27.6988 16.4415 27.2943C16.1891 27.0396 15.8724 26.8448 15.516 26.7349V31.0101ZM14.8776 14.5486C11.7447 14.5486 8.90883 15.8322 6.85491 17.8999C4.80099 19.9725 3.53399 22.8343 3.53399 25.9958C3.53399 29.1572 4.80594 32.019 6.85491 34.0917C8.90883 36.1643 11.7447 37.4429 14.8776 37.4429C18.0104 37.4429 20.8463 36.1593 22.9002 34.0917C24.9542 32.019 26.2212 29.1572 26.2212 25.9958C26.2212 22.8343 24.9492 19.9725 22.9002 17.8999C20.8463 15.8272 18.0104 14.5486 14.8776 14.5486ZM21.9945 18.8138C20.1732 16.9759 17.659 15.8372 14.8776 15.8372C12.0961 15.8372 9.58192 16.9759 7.76062 18.8138C5.93931 20.6518 4.81089 23.1889 4.81089 25.9958C4.81089 28.8026 5.93931 31.3397 7.76062 33.1777C9.58192 35.0156 12.0961 36.1543 14.8776 36.1543C17.659 36.1543 20.1732 35.0156 21.9945 33.1777C23.8158 31.3397 24.9443 28.8026 24.9443 25.9958C24.9443 23.1889 23.8158 20.6468 21.9945 18.8138ZM28.8244 31.999C27.3149 35.565 24.4988 38.4368 20.9799 40H36.5106C37.8815 40 39 38.8713 39 37.4878V34.5112C39 33.1277 37.8815 31.999 36.5106 31.999H28.8244ZM29.9083 23.998H36.5056C37.8765 23.998 38.995 25.1267 38.995 26.5102V29.4868C38.995 30.3958 38.515 31.1949 37.7924 31.6344C37.4014 31.4546 36.9609 31.3547 36.5056 31.3547H29.0768C29.6955 29.6866 30.037 27.8786 30.037 25.9958C30.037 25.3165 29.9924 24.6523 29.9083 23.998ZM26.3498 15.997C28.1068 18.0447 29.3293 20.5719 29.8093 23.3537H36.5056C36.9659 23.3537 37.4014 23.4536 37.7924 23.6334C38.51 23.1939 38.995 22.3948 38.995 21.4858V18.5092C38.995 17.1257 37.8765 15.997 36.5056 15.997H26.3498ZM17.5749 7.99601C16.204 7.99601 15.0854 9.12474 15.0854 10.5082V10.698C19.2774 10.7529 23.0537 12.5259 25.7658 15.3527H36.5056C36.9659 15.3527 37.4014 15.4526 37.7924 15.6324C38.51 15.1929 38.995 14.3938 38.995 13.4848V10.5082C38.995 9.12474 37.8765 7.99601 36.5056 7.99601H17.5749Z" fill="white"/>
</svg>
