<svg viewBox="0 0 40 40" fill="none" xmlns="http://www.w3.org/2000/svg">
<g clip-path="url(#clip0_1_155)">
<path d="M21.8668 26.6928L21.1966 26.3098L20.9094 26.2141H20.8137V30.0435C21.2291 29.9643 21.612 29.7645 21.9147 29.4691C22.1026 29.2732 22.2467 29.0396 22.3375 28.7838C22.4283 28.528 22.4636 28.2557 22.4412 27.9852C22.4492 27.7225 22.4002 27.4613 22.2976 27.2193C22.1809 27.0234 22.0357 26.846 21.8668 26.6928Z" fill="white"/>
<path d="M17.8459 21.4275C17.8426 21.6589 17.8917 21.888 17.9895 22.0977C18.0899 22.2773 18.2193 22.439 18.3725 22.5764L18.9948 22.9114L19.2341 23.0072H19.3298V19.8C18.9459 19.8068 18.5753 19.9416 18.2768 20.183C18.114 20.3433 17.9904 20.539 17.9157 20.7549C17.841 20.9707 17.8171 21.2009 17.8459 21.4275Z" fill="white"/>
<path d="M20.9573 0.365676C20.694 0.130189 20.3532 0 20 0C19.6467 0 19.3059 0.130189 19.0426 0.365676L3.05486 14.7259C2.90642 14.8587 2.7872 15.0209 2.7048 15.2021C2.62239 15.3834 2.57859 15.5799 2.57619 15.779V38.564C2.58817 38.941 2.74331 39.2994 3.01006 39.5661C3.27682 39.8329 3.63516 39.988 4.01221 40H35.9877C36.3648 39.988 36.7231 39.8329 36.9899 39.5661C37.2566 39.2994 37.4118 38.941 37.4238 38.564V15.779C37.4214 15.5799 37.3776 15.3834 37.2951 15.2021C37.2127 15.0209 37.0935 14.8587 36.9451 14.7259L20.9573 0.365676ZM24.5953 29.6127C24.3722 30.1335 24.0275 30.5931 23.59 30.953C23.2053 31.3395 22.7271 31.6199 22.2019 31.7668C21.7432 31.9512 21.2588 32.0643 20.7659 32.1019V33.3943H19.282V32.1019C18.7565 32.0743 18.2392 31.9611 17.7502 31.7668C17.2128 31.5681 16.7235 31.2582 16.3142 30.8573C15.8886 30.4588 15.561 29.9673 15.3568 29.4213C15.1303 28.8096 15.0326 28.1578 15.0696 27.5066V27.3151H17.5587V27.5066C17.4889 28.1511 17.6593 28.7988 18.0374 29.3255C18.1758 29.529 18.3611 29.6961 18.5778 29.8127C18.7944 29.9294 19.0359 29.9921 19.282 29.9957V25.8312L18.4682 25.544L18.0853 25.4004C17.6062 25.1863 17.1559 24.9129 16.745 24.5866C16.3227 24.27 15.9788 23.8606 15.7398 23.39C15.4568 22.827 15.3248 22.2002 15.3568 21.571C15.3375 20.9941 15.4522 20.4207 15.6919 19.8956C15.9179 19.4165 16.2642 19.0042 16.6971 18.6989C17.1085 18.36 17.5792 18.1003 18.0853 17.9331C18.4889 17.803 18.9068 17.7226 19.3298 17.6937V16.4492H20.8137V17.6459C21.2368 17.6748 21.6547 17.7551 22.0583 17.8852C22.5548 18.017 23.0137 18.2629 23.3986 18.6032C23.7964 18.9589 24.1076 19.401 24.3081 19.8956C24.5477 20.4207 24.6624 20.9941 24.6431 21.571V21.7625H22.154V21.571C22.1908 21.0851 22.0362 20.6041 21.7232 20.2307C21.612 20.0972 21.473 19.9894 21.316 19.9151C21.1589 19.8407 20.9875 19.8014 20.8137 19.7999V23.39L21.7232 23.725L22.1061 23.8686C22.6343 24.0414 23.1226 24.318 23.5422 24.6824C23.977 25.0057 24.3228 25.4338 24.5474 25.9269C24.8353 26.4709 24.9678 27.0837 24.9303 27.698C24.9521 28.3526 24.838 29.0045 24.5953 29.6127Z" fill="white"/>
</g>
<defs>
<clipPath id="clip0_1_155">
<rect width="40" height="40" fill="white"/>
</clipPath>
</defs>
</svg>
