<svg viewBox="0 0 40 40" fill="none" xmlns="http://www.w3.org/2000/svg">
<path d="M12.8004 2.4C11.9557 2.4 9.2 2.31374 9.2 1.20021C9.2 0.0866724 11.9557 0 12.8004 0C13.6447 0 16.4 0.0866724 16.4 1.20021C16.4 2.31333 13.6447 2.4 12.8004 2.4ZM10.2414 1.19979C10.6373 1.3558 11.5209 1.54194 12.8004 1.54194C14.0795 1.54194 14.9627 1.35622 15.3586 1.19979C14.9627 1.04378 14.0795 0.858057 12.8004 0.858057C11.5205 0.858057 10.6373 1.04378 10.2414 1.19979Z" fill="white"/>
<path d="M12.8 9.19995C14.3464 9.19995 15.6 7.85681 15.6 6.19995C15.6 4.5431 14.3464 3.19995 12.8 3.19995C11.2536 3.19995 10 4.5431 10 6.19995C10 7.85681 11.2536 9.19995 12.8 9.19995Z" fill="white"/>
<path d="M32.4213 13.2L32.1992 12.4854C32.0568 11.9997 31.7148 10.7649 30.4 10.0083L32.3505 10C33.2573 9.99648 33.996 10.7103 34 11.5957C34.0036 12.4618 33.3003 13.1674 32.4213 13.2Z" fill="white"/>
<path d="M25.6 9.19995C27.1464 9.19995 28.4 7.85681 28.4 6.19995C28.4 4.5431 27.1464 3.19995 25.6 3.19995C24.0536 3.19995 22.8 4.5431 22.8 6.19995C22.8 7.85681 24.0536 9.19995 25.6 9.19995Z" fill="white"/>
<path d="M9.44923 10.018L16.1211 10.0152L21.2 10C20.1681 10.558 19.681 11.3963 19.2862 12.5832L18.8158 14.1318H16.6062L16.6099 38.328C16.6099 39.2502 15.938 40 15.0177 40C14.0945 40 13.2723 39.2502 13.2723 38.328L13.2698 24.7497H12.3757L12.3806 38.328C12.3806 39.2502 11.7848 40 10.8628 40C9.94208 40 9.04261 39.2502 9.04261 38.328L9.03525 14.1314H8.0757V23.6447C8.0757 25.4384 5.59592 25.4712 5.60001 23.6787V14.088C5.60123 12.1067 7.13741 10.018 9.44923 10.018Z" fill="white"/>
<path d="M35.6 40L33.1128 34.917L32.6996 36.9113C32.1559 36.4321 31.496 35.6928 31.3814 34.8435C31.2763 34.0681 31.3889 33.4848 31.5191 32.8095C31.6723 32.0117 31.8463 31.1073 31.6353 29.8103C31.5207 29.1057 31.2926 28.4741 30.9949 27.9075H32.6889L28.8428 14.1524H29.5927L31.8295 21.9127C32.3617 23.6052 34.6161 22.9095 34.0995 21.0974L31.6174 12.6671C31.3503 11.7059 30.3883 10 28.3465 10H23.3055C21.2824 10 20.4633 11.7194 20.1576 12.6671L17.6711 21.0892C17.1756 22.9013 19.4121 23.6509 19.9442 21.8854L22.1787 14.1524H22.9784L19.4547 27.9075H22.525V38.5564C22.525 40.3848 25.3402 40.3758 25.3402 38.5564V27.8377H26.428L26.426 38.5412C26.426 40.3848 29.1059 40.3848 29.1059 38.5412V27.9075H29.763C30.1646 28.5047 30.4791 29.1927 30.6076 29.9868C30.7879 31.0914 30.647 31.8259 30.497 32.6024C30.3612 33.3075 30.2211 34.0367 30.3497 34.9901C30.5073 36.1593 31.3336 37.1098 32.0071 37.7087L30.6259 38.3055L35.6 40Z" fill="white"/>
</svg>
