<svg viewBox="0 0 40 40" fill="none" xmlns="http://www.w3.org/2000/svg">
<path d="M15.3403 18.0922C15.8603 18.7481 16.4603 19.3001 17.1323 19.7321C18.0043 20.2922 18.9083 20.5882 19.8203 20.6201C19.8843 20.6201 19.9403 20.6281 20.0043 20.6281C20.0843 20.6281 20.1483 20.6281 20.2283 20.6201C23.8283 20.4521 26.6123 16.2681 26.6123 12.7561C26.6123 9.10811 23.6523 6.14014 20.0043 6.14014C16.3483 6.14014 13.3803 9.10811 13.3803 12.7561C13.3803 14.5321 14.0843 16.4841 15.2523 17.9882C15.2843 18.0281 15.3083 18.0601 15.3403 18.0922Z" fill="white"/>
<path d="M28.8443 18.532C29.1643 18.948 29.5323 19.284 29.9483 19.548C30.5164 19.916 31.1244 20.1 31.7483 20.1C34.0363 20.1 35.8204 17.54 35.8204 15.332C35.8204 13.084 33.9883 11.252 31.7483 11.252C29.5003 11.252 27.6684 13.084 27.6684 15.332C27.6684 16.396 28.0923 17.58 28.8043 18.484C28.8123 18.5 28.8283 18.516 28.8443 18.532Z" fill="white"/>
<path d="M5.35629 18.54C5.66831 18.948 6.04428 19.284 6.45229 19.548C7.02827 19.916 7.63628 20.1 8.25229 20.1C10.5483 20.1 12.3243 17.54 12.3243 15.332C12.3243 13.084 10.5003 11.252 8.25229 11.252C6.00429 11.252 4.18027 13.084 4.18027 15.332C4.18027 16.396 4.60429 17.58 5.3083 18.484C5.32431 18.5 5.34028 18.524 5.35629 18.54Z" fill="white"/>
<path d="M35.8385 19.5947C34.8239 20.8362 33.3922 21.6998 31.7484 21.6998C31.3402 21.6998 30.9423 21.6389 30.5527 21.5376C32.3713 23.1938 33.7632 25.2552 34.6308 27.5521H39.2C39.6422 27.5521 40 27.1943 40 26.7521C40 23.6909 38.3206 21.0192 35.8385 19.5947Z" fill="white"/>
<path d="M9.48116 21.5326C9.08785 21.6397 8.6776 21.6997 8.25235 21.6997C7.32032 21.6997 6.42501 21.4293 5.59063 20.8965C5.03292 20.5346 4.55474 20.0982 4.15665 19.5979C1.67735 21.0231 0 23.6931 0 26.752C0 27.1942 0.357813 27.552 0.800001 27.552H5.38155C6.26012 25.2616 7.6669 23.194 9.48116 21.5326Z" fill="white"/>
<path d="M25.0739 19.9893C23.7752 21.2576 22.1527 22.1212 20.3391 22.2161C20.2242 22.2263 20.125 22.2278 20.0047 22.2278C19.9367 22.2278 19.8727 22.2247 19.8086 22.2208C18.557 22.1763 17.3813 21.7927 16.268 21.0778C15.7844 20.7672 15.3341 20.3996 14.9127 19.9906C9.68135 22.039 5.94833 27.1329 5.94833 33.0601C5.94833 33.5081 6.30834 33.8601 6.74833 33.8601H33.2444C33.2444 33.8601 33.2524 33.8601 33.2604 33.8601C33.7004 33.8601 34.0604 33.5081 34.0604 33.0601C34.0604 33.0041 34.0524 32.9481 34.0444 32.9001C33.9702 27.0477 30.2565 22.0206 25.0739 19.9893Z" fill="white"/>
</svg>
