<svg viewBox="0 0 40 40" fill="none" xmlns="http://www.w3.org/2000/svg">
<path d="M17.9431 5.66947C20.4279 5.66947 22.7082 6.48895 24.5314 7.84969L30.0279 2.57703H25.7415C24.9993 2.57703 24.3969 2.00494 24.3969 1.28852C24.3969 0.577252 24.9993 0 25.7415 0H33.2709C33.3623 0 33.4484 0.0103182 33.5344 0.0257955C33.5774 0.0360508 33.6151 0.0515281 33.6527 0.0618462C33.6958 0.0721644 33.7442 0.0824826 33.7872 0.103119C33.8302 0.118596 33.8786 0.144329 33.9216 0.170061C33.9539 0.185539 33.9862 0.201016 34.0185 0.216493C34.1637 0.31439 34.2927 0.432924 34.3895 0.577252C34.411 0.608207 34.4218 0.639099 34.4433 0.670053C34.4648 0.711263 34.4917 0.752536 34.5132 0.798905C34.5294 0.840115 34.5401 0.881387 34.5563 0.927756C34.567 0.963807 34.5831 0.999921 34.5885 1.04113C34.6047 1.12361 34.6154 1.20603 34.6154 1.28852V8.5042C34.6154 9.22062 34.0131 9.79272 33.2709 9.79272C32.5287 9.79272 31.9263 9.22062 31.9263 8.5042V4.40159L26.4299 9.66903C27.8497 11.4163 28.6995 13.6016 28.6995 15.9776C28.6995 21.6625 23.8753 26.2857 17.9431 26.2857C12.0111 26.2857 7.18684 21.6625 7.18684 15.9776C7.18684 10.2979 12.0111 5.66947 17.9431 5.66947ZM17.9431 23.7087C22.3909 23.7087 26.0104 20.2452 26.0104 15.9776C26.0104 11.7152 22.3909 8.2465 17.9431 8.2465C13.4954 8.2465 9.87592 11.7152 9.87592 15.9776C9.87592 20.2452 13.4954 23.7087 17.9431 23.7087Z" fill="white"/>
<path d="M21.352 34.2484C18.9363 34.2484 16.7193 33.417 14.9468 32.0365L9.60297 37.3856H13.7703C14.4919 37.3856 15.0775 37.966 15.0775 38.6928C15.0775 39.4144 14.4919 40 13.7703 40H6.45004C6.36113 40 6.27748 39.9895 6.19381 39.9738C6.152 39.9634 6.11539 39.9477 6.07879 39.9373C6.03695 39.9268 5.98991 39.9163 5.94807 39.8954C5.90623 39.8797 5.85919 39.8536 5.81735 39.8275C5.78598 39.8118 5.75461 39.7961 5.72324 39.7804C5.58205 39.6811 5.45657 39.5608 5.36245 39.4144C5.34155 39.383 5.33108 39.3516 5.31018 39.3202C5.28924 39.2784 5.2631 39.2366 5.2422 39.1895C5.2265 39.1477 5.21603 39.1058 5.20036 39.0588C5.18989 39.0222 5.17422 38.9856 5.16899 38.9438C5.15329 38.8601 5.14285 38.7765 5.14285 38.6928V31.3725C5.14285 30.6457 5.72847 30.0654 6.45004 30.0654C7.17161 30.0654 7.75723 30.6457 7.75723 31.3725V35.5346L13.101 30.1908C11.7206 28.4183 10.8945 26.2013 10.8945 23.7909C10.8945 18.0235 15.5847 13.3333 21.352 13.3333C27.1193 13.3333 31.8095 18.0235 31.8095 23.7909C31.8095 29.5529 27.1193 34.2484 21.352 34.2484ZM21.352 15.9477C17.0278 15.9477 13.5089 19.4614 13.5089 23.7909C13.5089 28.115 17.0278 31.634 21.352 31.634C25.6762 31.634 29.1951 28.115 29.1951 23.7909C29.1951 19.4614 25.6762 15.9477 21.352 15.9477Z" fill="white"/>
</svg>
