<svg viewBox="0 0 40 40" fill="none" xmlns="http://www.w3.org/2000/svg">
<path d="M34.1853 33.5902H31.4493C31.0284 34.1374 30.4812 34.5583 29.8077 34.8109L24.4198 36.9576C24.504 37.9257 25.3458 38.6834 26.314 38.6834C27.3242 38.6834 28.1661 37.9678 28.4186 37.0418C28.7975 37.4627 29.3447 37.7153 29.934 37.7153H29.9761C31.1126 37.7153 32.0386 36.7471 31.9965 35.6106C32.3754 35.9895 32.8805 36.242 33.4698 36.242H33.5119C34.6484 36.242 35.5744 35.2739 35.5323 34.1374V33.2534C35.1114 33.506 34.6484 33.5902 34.1853 33.5902Z" fill="white"/>
<path d="M34.1853 0H21.5995C20.2946 0 19.2002 1.09442 19.2002 2.3993V27.8655C19.2002 29.002 20.1683 29.7176 21.0102 29.7176C21.2627 29.7176 21.4732 29.6755 21.6837 29.5913L26.819 27.5288C27.282 27.3604 27.7871 27.2341 28.2923 27.2341C29.8918 27.2341 31.365 28.2022 31.9543 29.7176C32.2069 30.3069 32.2911 30.9383 32.2069 31.5697C32.1648 31.8222 32.1227 32.0327 32.0806 32.2853H34.1432C34.6483 32.2853 35.1113 32.1169 35.4901 31.8643C36.1215 31.4434 36.5425 30.6857 36.5425 29.886V2.3993C36.5425 1.09442 35.4901 0 34.1853 0ZM24.7144 1.89418H31.0283C31.2808 1.89418 31.4492 2.10465 31.4492 2.31511C31.4492 2.56767 31.2388 2.73604 31.0283 2.73604H24.7144C24.4618 2.73604 24.2934 2.52557 24.2934 2.31511C24.2934 2.10465 24.4618 1.89418 24.7144 1.89418ZM34.059 25.5925H21.6837V4.67231H34.059V25.5925Z" fill="white"/>
<path d="M30.7337 30.1805C30.1865 28.8336 28.6711 28.2022 27.3663 28.7494L22.2309 30.8119C20.1684 31.6538 17.8954 30.0964 17.8954 27.8654V19.1101C14.7805 19.5731 7.5826 26.9394 7.5826 26.9394L4.72028 27.4866C4.08889 27.6129 3.58378 28.1601 3.54168 28.7915L3.4575 37.2101C3.4575 37.9256 3.96261 38.5149 4.67819 38.5991C6.02516 38.7254 8.21399 39.0621 9.9819 39.7356C11.3289 40.2407 13.5598 39.904 14.0228 39.6935C15.3698 39.1463 29.3025 33.5901 29.3025 33.5901C30.6074 33.0429 31.2809 31.5275 30.7337 30.1805Z" fill="white"/>
</svg>
