<svg fill="lime" version="1.1" viewBox="0 0 752 752" xmlns="http://www.w3.org/2000/svg" style="scale: 2;">

    <path
        d="m425.73 286.02v-18.941h14.207v-26.047h-127.87v26.047h14.207v18.941h0.003906c-38.34 15.508-67.246 48.016-78.168 87.898-10.926 39.887-2.6172 82.582 22.469 115.46 25.082 32.879 64.07 52.172 105.42 52.172 41.355 0 80.34-19.293 105.43-52.172 25.082-32.879 33.391-75.574 22.469-115.46-10.926-39.883-39.832-72.391-78.168-87.898zm-1.375 131.23-41.012 44.66h0.003906c-1.8711 2.0859-4.5391 3.2812-7.3438 3.2812-2.8008 0-5.4688-1.1953-7.3398-3.2812l-41.059-44.707c-6.7227-6.2539-10.52-15.039-10.469-24.219 0.054688-9.1836 3.9492-17.922 10.746-24.098 6.793-6.1758 15.863-9.2227 25.008-8.4023s17.527 5.4336 23.113 12.723c6.2266-7.2539 15.309-11.422 24.863-11.414 8.668-0.039063 17 3.3555 23.172 9.4375 6.1758 6.0781 9.6953 14.355 9.793 23.023 0.09375 8.6641-3.2422 17.02-9.2852 23.234z" />
    <path
        d="m335.75 203.14h80.508c5.2305 0 9.4727 5.2305 9.4727 9.4727v9.4727c0 5.2305-4.2422 9.4727-9.4727 9.4727h-80.508c-5.2305 0-9.4727-5.2305-9.4727-9.4727v-9.4727c0-5.2305 4.2422-9.4727 9.4727-9.4727z" />

</svg>