<svg fill="magenta" version="1.1" viewBox="0 0 752 752" xmlns="http://www.w3.org/2000/svg" style="scale: 2;">

    <path
        d="m425.73 286.02v-18.941h14.207v-26.047h-127.87v26.047h14.207v18.941h0.003906c-38.34 15.508-67.246 48.016-78.168 87.898-10.926 39.887-2.6172 82.582 22.469 115.46 25.082 32.879 64.07 52.172 105.42 52.172 41.355 0 80.34-19.293 105.43-52.172 25.082-32.879 33.391-75.574 22.469-115.46-10.926-39.883-39.832-72.391-78.168-87.898zm-49.727 227.32c-27.633 0-54.133-10.977-73.672-30.516-19.539-19.539-30.516-46.039-30.516-73.672 0-57.539 27.703 14.207 85.246 14.207 57.539 0 123.13-71.746 123.13-14.207h-0.003906c0 27.633-10.977 54.133-30.516 73.672-19.539 19.539-46.039 30.516-73.672 30.516z" />
    <path
        d="m335.75 203.14h80.508c5.2305 0 9.4727 5.2305 9.4727 9.4727v9.4727c0 5.2305-4.2422 9.4727-9.4727 9.4727h-80.508c-5.2305 0-9.4727-5.2305-9.4727-9.4727v-9.4727c0-5.2305 4.2422-9.4727 9.4727-9.4727z" />

</svg>