<svg width="1920" height="1080" viewBox="0 0 1920 1080" fill="none" xmlns="http://www.w3.org/2000/svg">
<g style="mix-blend-mode:screen" opacity="0.32">
<path d="M1290 697.5H1390L1126.5 1080H1026.5L1290 697.5Z" fill="url(#paint0_linear_0_15)" fill-opacity="0.05"/>
</g>
<g style="mix-blend-mode:screen" opacity="0.32">
<path d="M1176 0H1276L1012.5 382.5H912.5L1176 0Z" fill="url(#paint1_linear_0_15)" fill-opacity="0.05"/>
</g>
<g style="mix-blend-mode:screen" opacity="0.32">
<path d="M1981 0H2081L1817.5 382.5H1717.5L1981 0Z" fill="url(#paint2_linear_0_15)" fill-opacity="0.05"/>
</g>
<g style="mix-blend-mode:screen" opacity="0.32">
<path d="M690.982 -3L1056.5 -3L310.518 1080H-55L690.982 -3Z" fill="url(#paint3_linear_0_15)" fill-opacity="0.05"/>
</g>
<g style="mix-blend-mode:screen" opacity="0.32">
<path d="M2561.48 -3L2927 -3L2181.02 1080H1815.5L2561.48 -3Z" fill="white" fill-opacity="0.05"/>
</g>
<g style="mix-blend-mode:screen">
<path d="M1271.01 540L1277.5 540L904.992 1080H898.5L1271.01 540Z" fill="url(#paint4_linear_0_15)" fill-opacity="0.05"/>
</g>
<g style="mix-blend-mode:screen">
<path d="M2075.01 540L2081.5 540L1708.99 1080H1702.5L2075.01 540Z" fill="url(#paint5_linear_0_15)" fill-opacity="0.05"/>
</g>
<g style="mix-blend-mode:screen">
<path d="M1508.99 540L1502.5 540L1875.01 0H1881.5L1508.99 540Z" fill="url(#paint6_linear_0_15)" fill-opacity="0.05"/>
</g>
<path d="M185.992 540L179.5 540L552.008 0H558.5L185.992 540Z" fill="url(#paint7_linear_0_15)" fill-opacity="0.05"/>
<path d="M1000.99 540L994.5 540L1367.01 0H1373.5L1000.99 540Z" fill="url(#paint8_linear_0_15)" fill-opacity="0.05"/>
<defs>
<linearGradient id="paint0_linear_0_15" x1="1208.25" y1="697.5" x2="1208.25" y2="1080" gradientUnits="userSpaceOnUse">
<stop stop-color="white" stop-opacity="0"/>
<stop offset="1" stop-color="white"/>
</linearGradient>
<linearGradient id="paint1_linear_0_15" x1="1094.25" y1="0" x2="1094.25" y2="382.5" gradientUnits="userSpaceOnUse">
<stop stop-color="white"/>
<stop offset="1" stop-color="white" stop-opacity="0"/>
</linearGradient>
<linearGradient id="paint2_linear_0_15" x1="1899.25" y1="0" x2="1899.25" y2="382.5" gradientUnits="userSpaceOnUse">
<stop stop-color="white"/>
<stop offset="1" stop-color="white" stop-opacity="0"/>
</linearGradient>
<linearGradient id="paint3_linear_0_15" x1="500.75" y1="-3" x2="500.75" y2="1080" gradientUnits="userSpaceOnUse">
<stop stop-color="white"/>
<stop offset="1" stop-color="white" stop-opacity="0"/>
</linearGradient>
<linearGradient id="paint4_linear_0_15" x1="999.984" y1="540" x2="999.984" y2="1080" gradientUnits="userSpaceOnUse">
<stop stop-color="white" stop-opacity="0"/>
<stop offset="1" stop-color="white"/>
</linearGradient>
<linearGradient id="paint5_linear_0_15" x1="1803.98" y1="540" x2="1803.98" y2="1080" gradientUnits="userSpaceOnUse">
<stop stop-color="white" stop-opacity="0"/>
<stop offset="1" stop-color="white"/>
</linearGradient>
<linearGradient id="paint6_linear_0_15" x1="1780.02" y1="540" x2="1780.02" y2="-0.000225306" gradientUnits="userSpaceOnUse">
<stop stop-color="white" stop-opacity="0"/>
<stop offset="1" stop-color="white"/>
</linearGradient>
<linearGradient id="paint7_linear_0_15" x1="457.016" y1="540" x2="457.016" y2="-0.000225306" gradientUnits="userSpaceOnUse">
<stop stop-color="white" stop-opacity="0"/>
<stop offset="1" stop-color="white"/>
</linearGradient>
<linearGradient id="paint8_linear_0_15" x1="1272.02" y1="540" x2="1272.02" y2="-0.000225306" gradientUnits="userSpaceOnUse">
<stop stop-color="white" stop-opacity="0"/>
<stop offset="1" stop-color="white"/>
</linearGradient>
</defs>
</svg>
